<?xml version="1.0" encoding="utf-8"?>
<!-- Generator: Adobe Illustrator 27.5.0, SVG Export Plug-In . SVG Version: 6.00 Build 0)  -->
<svg version="1.1" xmlns="http://www.w3.org/2000/svg" xmlns:xlink="http://www.w3.org/1999/xlink" x="0px" y="0px"
	 viewBox="0 0 500 500" style="enable-background:new 0 0 500 500;" xml:space="preserve">
<g id="BACKGROUND">
	<rect style="fill:#FFFFFF;" width="500" height="500"/>
</g>
<g id="OBJECTS">
	<path style="fill:#DFE6EE;" d="M383.382,137.028C325.889,71.851,246.937,47.914,186.504,55.07
		C117.431,63.249,69.271,113.492,56.47,181.463c-0.882,4.682-1.597,9.457-2.133,14.322c-3.385,30.742,0.641,65.205,13.504,100.414
		c50.73,138.867,202.777,169.623,287.504,139.283C448.258,402.21,490.922,258.94,383.382,137.028z"/>
	<g>
		<path style="fill:#4C5980;" d="M462.856,124.801c-0.089-10.198-0.175-20.396-0.272-30.594c-0.011-1.083-0.166-7.885-0.44-8.622
			c-0.257-1.641-52.845-0.095-63.174-0.315c-10.142-0.216-60.675,0.452-60.963,0.468c-1.349,0.075-1.108,4.84-1.139,4.838
			c0.002,0.719-0.094,136.402-0.059,204.474c0.304,0.892,21.793,0.65,31.764,0.681c10.373,0.032,20.745-0.117,31.117-0.174
			c10.184-0.058,56.383,0.478,61.408-1.04c0.149-0.045,0.259-0.185,0.393-0.265c0.432-0.138,0.83-0.468,1.143-0.964
			c0.163-31.949,0.227-63.929,0.067-95.577C462.577,173.278,462.698,149.02,462.856,124.801z"/>
		<path style="fill:#B345B5;" d="M462.604,96.515c-0.007-0.769-0.013-1.538-0.021-2.307c-0.01-1.083-0.166-7.885-0.44-8.622
			c-0.257-1.641-52.845-0.095-63.174-0.315c-10.142-0.216-60.675,0.452-60.963,0.468c-1.349,0.075-1.108,4.84-1.139,4.838
			c0,0.092-0.001,2.38-0.003,6.437c8.081,0.187,21.049,0.089,28.413,0.11c11.618,0.033,23.235-0.116,34.852-0.173
			C409.626,96.903,447.08,97.267,462.604,96.515z"/>
		<path style="fill:#FFD075;" d="M454.594,92.079c-0.388-0.713-0.465-1.462-0.149-2.209c0.076-0.178,0.287-0.505,0.422-0.644
			c0.101-0.104,0.232-0.246,0.351-0.328c0.269-0.184,0.476-0.3,0.79-0.39c0.169-0.048,0.382-0.115,0.557-0.126
			c0.196-0.012,0.379,0.001,0.574,0.023c0.555,0.062,1.06,0.356,1.445,0.76c0.688,0.721,0.885,1.793,0.412,2.777
			c-0.705,1.466-2.361,1.813-3.586,1.014C455.072,92.737,454.787,92.434,454.594,92.079z"/>
		<path style="fill:#FFFFFF;" d="M447.209,92.079c-0.388-0.713-0.465-1.462-0.149-2.209c0.076-0.178,0.287-0.505,0.422-0.644
			c0.101-0.104,0.232-0.246,0.351-0.328c0.269-0.184,0.476-0.3,0.79-0.39c0.169-0.048,0.382-0.115,0.557-0.126
			c0.196-0.012,0.379,0.001,0.574,0.023c0.555,0.062,1.06,0.356,1.445,0.76c0.688,0.721,0.885,1.793,0.412,2.777
			c-0.705,1.466-2.361,1.813-3.586,1.014C447.687,92.737,447.402,92.434,447.209,92.079z"/>
		<path style="fill:#FFFFFF;" d="M439.824,92.079c-0.388-0.713-0.465-1.462-0.149-2.209c0.075-0.178,0.287-0.505,0.422-0.644
			c0.101-0.104,0.232-0.246,0.351-0.328c0.269-0.184,0.476-0.3,0.79-0.39c0.168-0.048,0.382-0.115,0.557-0.126
			c0.196-0.012,0.379,0.001,0.574,0.023c0.555,0.062,1.06,0.356,1.445,0.76c0.688,0.721,0.885,1.793,0.412,2.777
			c-0.705,1.466-2.362,1.813-3.586,1.014C440.302,92.737,440.017,92.434,439.824,92.079z"/>
		<path style="fill:#D66EC0;" d="M388.809,104.114c-5.659,0.161-18.765,0.079-22.119,0.089c-4.15,0.012-8.3,0.045-12.451,0.037
			c-2.487-0.005-6.76,0.014-9.659-0.02c-0.142,0.32-0.103,0.85-0.11,0.85c0,0.031-0.001,1.202-0.002,3.176
			c2.807,0.046,7.446,0.024,10.06,0.029c4.054,0.008,8.108-0.025,12.162-0.037c3.413-0.01,17.171,0.079,22.265-0.11
			c-0.011-0.744-0.02-1.489-0.032-2.233C388.921,105.687,388.881,104.552,388.809,104.114z"/>
		<path style="fill:#FFD075;" d="M383.264,115.026c-2.715,0.161-9.002,0.079-10.61,0.089c-1.991,0.012-3.982,0.045-5.973,0.037
			c-1.193-0.005-3.243,0.014-4.633-0.02c-0.068,0.32-0.049,0.85-0.053,0.85c0,0.031,0,1.202-0.001,3.176
			c1.347,0.046,3.572,0.024,4.826,0.029c1.945,0.008,3.89-0.025,5.834-0.037c1.637-0.011,8.237,0.079,10.681-0.11
			c-0.005-0.744-0.01-1.489-0.015-2.233C383.318,116.599,383.299,115.464,383.264,115.026z"/>
		<path style="fill:#7991D1;" d="M400.151,115.026c-1.831,0.161-6.073,0.079-7.158,0.089c-1.343,0.012-2.686,0.045-4.029,0.037
			c-0.805-0.005-2.188,0.014-3.126-0.02c-0.046,0.32-0.033,0.85-0.036,0.85c0,0.031,0,1.202-0.001,3.176
			c0.909,0.046,2.409,0.024,3.256,0.029c1.312,0.008,2.624-0.025,3.936-0.037c1.104-0.011,5.557,0.079,7.205-0.11
			c-0.003-0.744-0.007-1.489-0.01-2.233C400.188,116.599,400.175,115.464,400.151,115.026z"/>
		<path style="fill:#FFFFFF;" d="M446.897,123.403c-9.879,0.161-32.76,0.079-38.614,0.089c-7.245,0.012-14.49,0.045-21.736,0.037
			c-4.342-0.005-11.802,0.014-16.862-0.02c-0.248,0.321-0.179,0.85-0.193,0.85c0,0.031-0.001,1.202-0.004,3.176
			c4.901,0.046,12.998,0.024,17.563,0.029c7.078,0.008,14.155-0.025,21.232-0.037c5.958-0.01,29.977,0.079,38.87-0.11
			c-0.019-0.744-0.036-1.489-0.055-2.233C447.093,124.976,447.022,123.841,446.897,123.403z"/>
		<path style="fill:#FFFFFF;" d="M446.897,130.016c-9.879,0.161-32.76,0.079-38.614,0.089c-7.245,0.012-14.49,0.045-21.736,0.037
			c-4.342-0.005-11.802,0.014-16.862-0.02c-0.248,0.32-0.179,0.85-0.193,0.85c0,0.031-0.001,1.202-0.004,3.176
			c4.901,0.046,12.998,0.023,17.563,0.029c7.078,0.008,14.155-0.025,21.232-0.037c5.958-0.01,29.977,0.079,38.87-0.11
			c-0.019-0.744-0.036-1.489-0.055-2.233C447.093,131.589,447.022,130.454,446.897,130.016z"/>
		<path style="fill:#FFFFFF;" d="M446.897,136.63c-9.879,0.161-32.76,0.079-38.614,0.089c-7.245,0.012-14.49,0.045-21.736,0.037
			c-4.342-0.005-11.802,0.014-16.862-0.02c-0.248,0.32-0.179,0.85-0.193,0.85c0,0.031-0.001,1.202-0.004,3.176
			c4.901,0.046,12.998,0.023,17.563,0.029c7.078,0.008,14.155-0.025,21.232-0.037c5.958-0.011,29.977,0.079,38.87-0.11
			c-0.019-0.745-0.036-1.489-0.055-2.233C447.093,138.202,447.022,137.068,446.897,136.63z"/>
		<path style="fill:#FFFFFF;" d="M421.685,143.243c-6.661,0.161-22.09,0.079-26.037,0.089c-4.885,0.012-9.771,0.045-14.656,0.037
			c-2.928-0.005-7.958,0.014-11.37-0.02c-0.167,0.32-0.121,0.85-0.13,0.85c0,0.031-0.001,1.202-0.003,3.176
			c3.305,0.046,8.765,0.023,11.843,0.029c4.772,0.008,9.545-0.025,14.317-0.037c4.017-0.01,20.213,0.079,26.21-0.11
			c-0.013-0.744-0.024-1.489-0.037-2.233C421.817,144.816,421.769,143.681,421.685,143.243z"/>
		<path style="fill:#FFD075;" d="M383.289,149.856c-1.761,0.161-5.84,0.079-6.884,0.089c-1.292,0.012-2.583,0.045-3.875,0.037
			c-0.774-0.005-2.104,0.014-3.006-0.02c-0.044,0.321-0.032,0.85-0.034,0.85c0,0.031,0,1.202-0.001,3.176
			c0.874,0.046,2.317,0.024,3.131,0.029c1.262,0.008,2.523-0.025,3.785-0.037c1.062-0.01,5.344,0.079,6.929-0.11
			c-0.003-0.744-0.006-1.489-0.01-2.233C383.324,151.429,383.311,150.294,383.289,149.856z"/>
		<path style="fill:#7991D1;" d="M383.289,156.47c-1.761,0.161-5.84,0.079-6.884,0.089c-1.292,0.012-2.583,0.045-3.875,0.037
			c-0.774-0.005-2.104,0.014-3.006-0.02c-0.044,0.32-0.032,0.85-0.034,0.85c0,0.031,0,1.202-0.001,3.176
			c0.874,0.046,2.317,0.023,3.131,0.029c1.262,0.008,2.523-0.025,3.785-0.037c1.062-0.01,5.344,0.079,6.929-0.11
			c-0.003-0.744-0.006-1.489-0.01-2.233C383.324,158.043,383.311,156.908,383.289,156.47z"/>
		<path style="fill:#FFFFFF;" d="M446.897,163.083c-9.879,0.161-32.76,0.079-38.614,0.089c-7.245,0.012-14.49,0.045-21.736,0.037
			c-4.342-0.005-11.802,0.014-16.862-0.02c-0.248,0.32-0.179,0.85-0.193,0.85c0,0.031-0.001,1.202-0.004,3.176
			c4.901,0.046,12.998,0.024,17.563,0.029c7.078,0.008,14.155-0.025,21.232-0.037c5.958-0.01,29.977,0.079,38.87-0.11
			c-0.019-0.744-0.036-1.489-0.055-2.233C447.093,164.656,447.022,163.521,446.897,163.083z"/>
		<path style="fill:#7991D1;" d="M423.388,115.026c-2.631,0.161-8.723,0.079-10.282,0.089c-1.929,0.012-3.858,0.045-5.787,0.037
			c-1.156-0.005-3.142,0.014-4.49-0.02c-0.066,0.32-0.048,0.85-0.051,0.85c0,0.031,0,1.202-0.001,3.176
			c1.305,0.046,3.461,0.024,4.677,0.029c1.884,0.008,3.769-0.025,5.653-0.037c1.586-0.011,7.982,0.079,10.35-0.11
			c-0.005-0.744-0.009-1.489-0.015-2.233C423.44,116.599,423.421,115.464,423.388,115.026z"/>
		<path style="fill:#FFD075;" d="M383.264,178.735c-2.715,0.161-9.002,0.079-10.61,0.089c-1.991,0.012-3.982,0.045-5.973,0.037
			c-1.193-0.005-3.243,0.014-4.633-0.02c-0.068,0.32-0.049,0.85-0.053,0.85c0,0.031,0,1.202-0.001,3.176
			c1.347,0.046,3.572,0.024,4.826,0.029c1.945,0.008,3.89-0.025,5.834-0.037c1.637-0.01,8.237,0.079,10.681-0.11
			c-0.005-0.745-0.01-1.489-0.015-2.233C383.318,180.308,383.299,179.173,383.264,178.735z"/>
		<path style="fill:#FFFFFF;" d="M383.264,187.773c-2.715,0.161-9.002,0.079-10.61,0.089c-1.991,0.012-3.982,0.045-5.973,0.037
			c-1.193-0.005-3.243,0.014-4.633-0.02c-0.068,0.32-0.049,0.85-0.053,0.85c0,0.031,0,1.202-0.001,3.176
			c1.347,0.046,3.572,0.023,4.826,0.029c1.945,0.008,3.89-0.025,5.834-0.037c1.637-0.01,8.237,0.079,10.681-0.11
			c-0.005-0.744-0.01-1.489-0.015-2.233C383.318,189.346,383.299,188.211,383.264,187.773z"/>
		<path style="fill:#FFD075;" d="M379.859,195.709c-2.28,0.161-7.56,0.079-8.911,0.089c-1.672,0.012-3.344,0.045-5.016,0.037
			c-1.002-0.005-2.724,0.014-3.892-0.02c-0.057,0.32-0.041,0.85-0.044,0.85c0,0.031,0,1.202-0.001,3.176
			c1.131,0.045,3,0.024,4.053,0.029c1.634,0.008,3.267-0.025,4.9-0.037c1.375-0.01,6.918,0.079,8.97-0.11
			c-0.004-0.744-0.008-1.489-0.013-2.233C379.904,197.282,379.887,196.147,379.859,195.709z"/>
		<path style="fill:#7991D1;" d="M400.151,178.735c-1.831,0.161-6.073,0.079-7.158,0.089c-1.343,0.012-2.686,0.045-4.029,0.037
			c-0.805-0.005-2.188,0.014-3.126-0.02c-0.046,0.32-0.033,0.85-0.036,0.85c0,0.031,0,1.202-0.001,3.176
			c0.909,0.046,2.409,0.024,3.256,0.029c1.312,0.008,2.624-0.025,3.936-0.037c1.104-0.01,5.557,0.079,7.205-0.11
			c-0.003-0.745-0.007-1.489-0.01-2.233C400.188,180.308,400.175,179.173,400.151,178.735z"/>
		<path style="fill:#FFFFFF;" d="M446.897,210.479c-9.879,0.161-32.76,0.079-38.614,0.089c-7.245,0.012-14.49,0.045-21.736,0.037
			c-4.342-0.005-11.802,0.014-16.862-0.02c-0.248,0.32-0.179,0.85-0.193,0.85c0,0.031-0.001,1.202-0.004,3.176
			c4.901,0.046,12.998,0.023,17.563,0.029c7.078,0.008,14.155-0.025,21.232-0.037c5.958-0.01,29.977,0.079,38.87-0.11
			c-0.019-0.744-0.036-1.489-0.055-2.233C447.093,212.052,447.022,210.917,446.897,210.479z"/>
		<path style="fill:#FFFFFF;" d="M446.897,217.092c-9.879,0.161-32.76,0.079-38.614,0.089c-7.245,0.012-14.49,0.045-21.736,0.037
			c-4.342-0.005-11.802,0.014-16.862-0.02c-0.248,0.32-0.179,0.85-0.193,0.85c0,0.031-0.001,1.202-0.004,3.176
			c4.901,0.045,12.998,0.023,17.563,0.029c7.078,0.008,14.155-0.025,21.232-0.037c5.958-0.01,29.977,0.079,38.87-0.11
			c-0.019-0.744-0.036-1.489-0.055-2.233C447.093,218.665,447.022,217.53,446.897,217.092z"/>
		<path style="fill:#FFFFFF;" d="M446.897,275.952c-9.879,0.161-32.76,0.079-38.614,0.089c-7.245,0.012-14.49,0.045-21.736,0.037
			c-4.342-0.005-11.802,0.014-16.862-0.02c-0.248,0.32-0.179,0.85-0.193,0.85c0,0.031-0.001,1.202-0.004,3.176
			c4.901,0.046,12.998,0.023,17.563,0.029c7.078,0.008,14.155-0.025,21.232-0.037c5.958-0.01,29.977,0.079,38.87-0.11
			c-0.019-0.745-0.036-1.489-0.055-2.233C447.093,277.524,447.022,276.389,446.897,275.952z"/>
		<path style="fill:#FFFFFF;" d="M446.897,283.006c-9.879,0.161-32.76,0.079-38.614,0.089c-7.245,0.012-14.49,0.045-21.736,0.037
			c-4.342-0.005-11.802,0.014-16.862-0.02c-0.248,0.32-0.179,0.85-0.193,0.85c0,0.031-0.001,1.203-0.004,3.176
			c4.901,0.046,12.998,0.023,17.563,0.029c7.078,0.008,14.155-0.025,21.232-0.037c5.958-0.01,29.977,0.079,38.87-0.11
			c-0.019-0.744-0.036-1.489-0.055-2.233C447.093,284.579,447.022,283.444,446.897,283.006z"/>
		<path style="fill:#FFFFFF;" d="M413.28,223.706c-5.589,0.161-18.533,0.079-21.845,0.089c-4.099,0.012-8.197,0.045-12.296,0.037
			c-2.456-0.005-6.677,0.014-9.539-0.02c-0.14,0.32-0.101,0.85-0.109,0.85c0,0.031-0.001,1.202-0.002,3.176
			c2.773,0.046,7.353,0.023,9.936,0.029c4.004,0.008,8.008-0.025,12.011-0.037c3.37-0.01,16.959,0.079,21.989-0.11
			c-0.01-0.745-0.02-1.489-0.031-2.233C413.391,225.279,413.351,224.144,413.28,223.706z"/>
		<path style="fill:#FFFFFF;" d="M397.021,230.319c-3.514,0.161-11.652,0.079-13.734,0.089c-2.577,0.012-5.154,0.045-7.731,0.037
			c-1.544-0.005-4.198,0.014-5.997-0.02c-0.088,0.32-0.064,0.85-0.069,0.85c0,0.031,0,1.202-0.001,3.176
			c1.743,0.046,4.623,0.023,6.247,0.029c2.517,0.008,5.035-0.025,7.552-0.037c2.119-0.01,10.662,0.079,13.825-0.11
			c-0.007-0.744-0.013-1.489-0.02-2.233C397.091,231.892,397.066,230.757,397.021,230.319z"/>
		<path style="fill:#FFFFFF;" d="M390.649,236.932c-2.701,0.161-8.955,0.079-10.555,0.089c-1.98,0.012-3.961,0.045-5.942,0.037
			c-1.187-0.005-3.226,0.014-4.609-0.02c-0.068,0.32-0.049,0.85-0.053,0.85c0,0.031,0,1.202-0.001,3.176
			c1.34,0.046,3.553,0.024,4.801,0.029c1.935,0.008,3.87-0.025,5.804-0.037c1.629-0.01,8.195,0.079,10.626-0.11
			c-0.005-0.744-0.01-1.489-0.015-2.233C390.703,238.505,390.684,237.371,390.649,236.932z"/>
		<path style="fill:#FFFFFF;" d="M428.221,243.546c-7.496,0.161-24.856,0.079-29.298,0.089c-5.497,0.012-10.994,0.045-16.492,0.037
			c-3.294-0.005-8.954,0.014-12.794-0.02c-0.188,0.32-0.136,0.85-0.146,0.85c0,0.031-0.001,1.202-0.003,3.176
			c3.718,0.046,9.862,0.024,13.326,0.029c5.37,0.008,10.74-0.025,16.109-0.037c4.52-0.01,22.745,0.079,29.492-0.11
			c-0.014-0.745-0.027-1.489-0.042-2.233C428.37,245.119,428.316,243.984,428.221,243.546z"/>
		<path style="fill:#FFFFFF;" d="M434.593,250.159c-8.309,0.161-27.552,0.079-32.476,0.089c-6.093,0.012-12.187,0.045-18.281,0.037
			c-3.652-0.005-9.926,0.014-14.182-0.02c-0.208,0.321-0.151,0.85-0.162,0.85c0,0.031-0.001,1.202-0.003,3.176
			c4.122,0.046,10.932,0.024,14.771,0.029c5.953,0.008,11.905-0.025,17.857-0.037c5.011-0.011,25.212,0.079,32.691-0.11
			c-0.016-0.745-0.03-1.489-0.047-2.233C434.758,251.732,434.698,250.597,434.593,250.159z"/>
		<path style="fill:#7991D1;" d="M423.388,178.735c-2.631,0.161-8.723,0.079-10.282,0.089c-1.929,0.012-3.858,0.045-5.787,0.037
			c-1.156-0.005-3.142,0.014-4.49-0.02c-0.066,0.32-0.048,0.85-0.051,0.85c0,0.031,0,1.202-0.001,3.176
			c1.305,0.046,3.461,0.024,4.677,0.029c1.884,0.008,3.769-0.025,5.653-0.037c1.586-0.01,7.982,0.079,10.35-0.11
			c-0.005-0.745-0.009-1.489-0.015-2.233C423.44,180.308,423.421,179.173,423.388,178.735z"/>
		<path style="fill:#FFD075;" d="M383.264,266.693c-2.715,0.161-9.002,0.079-10.61,0.089c-1.991,0.012-3.982,0.045-5.973,0.037
			c-1.193-0.005-3.243,0.014-4.633-0.02c-0.068,0.32-0.049,0.85-0.053,0.85c0,0.031,0,1.202-0.001,3.176
			c1.347,0.046,3.572,0.023,4.826,0.029c1.945,0.008,3.89-0.025,5.834-0.037c1.637-0.011,8.237,0.079,10.681-0.11
			c-0.005-0.745-0.01-1.489-0.015-2.233C383.318,268.266,383.299,267.131,383.264,266.693z"/>
		<path style="fill:#7991D1;" d="M400.151,266.693c-1.831,0.161-6.073,0.079-7.158,0.089c-1.343,0.012-2.686,0.045-4.029,0.037
			c-0.805-0.005-2.188,0.014-3.126-0.02c-0.046,0.32-0.033,0.85-0.036,0.85c0,0.031,0,1.202-0.001,3.176
			c0.909,0.046,2.409,0.023,3.256,0.029c1.312,0.008,2.624-0.025,3.936-0.037c1.104-0.011,5.557,0.079,7.205-0.11
			c-0.003-0.745-0.007-1.489-0.01-2.233C400.188,268.266,400.175,267.131,400.151,266.693z"/>
		<path style="fill:#7991D1;" d="M444.371,266.693c-5.309,0.161-17.603,0.079-20.749,0.089c-3.893,0.012-7.786,0.045-11.68,0.037
			c-2.333-0.005-6.341,0.014-9.061-0.02c-0.133,0.32-0.096,0.85-0.103,0.85c0,0.031-0.001,1.202-0.002,3.176
			c2.633,0.046,6.984,0.023,9.437,0.029c3.803,0.008,7.606-0.025,11.409-0.037c3.201-0.011,16.108,0.079,20.886-0.11
			c-0.01-0.745-0.019-1.489-0.03-2.233C444.476,268.266,444.438,267.131,444.371,266.693z"/>
	</g>
	<g>
		<path style="fill:#313B59;" d="M384.378,396.379c1.617-49.041,2.133-97.667,1.852-147.785c-0.016-2.815-0.29-5.632-0.813-8.398
			c-0.522-2.766-1.992-6.496-4.807-6.48c-32.717,0.187-65.435,0.374-98.152,0.561c-8.487,0.049-16.974,0.097-25.461,0.146
			c-39.531,0.226-80.049,0.224-119.296,0.102c-2.787-0.009-4.407-0.427-6.59,0.056c-1.914,0.424-3.889,0.875-5.467,2.038
			c-3.112,2.293-4.723,7.707-4.597,11.57c1.627,49.626,1.812,99.3,0.554,148.937c10.908,2.761,22.24,1.096,33.491,1.005
			C232.425,397.508,308.026,400.141,384.378,396.379z"/>
		<path style="fill:#4C5980;" d="M235.821,414.69c20.55-0.633,104.116-0.813,111.571-0.633c22.599,0.545,33.004,0.827,55.6,0.16
			c0.535,0.082,1.101,0.087,1.594-0.136c0.493-0.222,0.862-0.711,0.828-1.251c-0.28-4.441-0.066-9.117-0.211-13.554
			c-0.023-0.707,0.1-1.45-0.337-2.006c-0.437-0.556-1.349-0.894-2.056-0.894c-101.303-0.038-193.704,1.131-304.474,0.003
			c-1.825-0.019-3.668,0.886-3.669,2.257c-0.006,4.701,0.003,9.027-0.082,14.294c-0.016,0.999,0.685,1.991,1.684,2.017
			c23.696,0.614,79.316-0.193,85.882-0.138C194.946,414.917,223.025,414.583,235.821,414.69z"/>
		<path style="fill:#313B59;" d="M220.139,398.997c0.358,1.592,2.364,2.086,3.995,2.152c2.721,0.11,51.833,1.26,71.292,0.12
			c0.387-0.023,3.419-0.427,3.678-0.715c0.253-0.28,0.257-0.698,0.247-1.076c-0.025-0.951-0.063-1.901-0.097-2.852
			c-26.232,0.101-52.51,0.2-79.34,0.233C219.892,397.54,219.975,398.269,220.139,398.997z"/>
		<path style="fill:#FFFFFF;" d="M377.673,389.235c1.168-48.51,0.687-146.64,0.687-147.058c-17.139-0.032-34.279-0.059-51.418-0.087
			c-8.743-0.014-17.487-0.028-26.23-0.042c-57.371-0.092-115.183,0.482-172.543,1.626c0.756,48.518,0.55,97.051-0.617,145.56
			C210.169,388.272,295.052,388.732,377.673,389.235z"/>
		<g>
			<path style="fill:#4C5980;" d="M267.918,281.174c-0.096-5.562-0.189-11.124-0.293-16.686c-0.011-0.591-0.177-4.301-0.469-4.703
				c-0.273-0.895-56.161-0.06-67.138-0.181c-10.778-0.12-64.482,0.237-64.788,0.246c-1.434,0.041-1.177,2.639-1.21,2.639
				c0.003,0.392-0.079,74.395-0.032,111.522c0.323,0.487,23.16,0.358,33.757,0.376c11.024,0.019,22.047-0.061,33.07-0.09
				c10.823-0.03,59.921,0.269,65.261-0.558c0.159-0.024,0.275-0.101,0.418-0.144c0.459-0.075,0.882-0.255,1.214-0.526
				c0.169-17.425,0.232-34.867,0.057-52.128C267.63,307.613,267.755,294.383,267.918,281.174z"/>
			<path style="fill:#B345B5;" d="M267.72,269.901c-0.032-1.804-0.061-3.609-0.095-5.413c-0.011-0.591-0.177-4.301-0.469-4.703
				c-0.273-0.895-56.161-0.06-67.138-0.181c-10.778-0.12-64.482,0.237-64.788,0.246c-1.434,0.041-1.177,2.639-1.21,2.639
				c0.001,0.076-0.002,2.914-0.007,7.698c8.437,0.11,22.378,0.057,30.236,0.07c12.185,0.02,24.369-0.06,36.553-0.089
				C211.059,270.142,252.411,270.359,267.72,269.901z"/>
			<path style="fill:#FFD075;" d="M259.045,266.336c-0.441-0.811-0.529-1.663-0.169-2.512c0.086-0.203,0.327-0.574,0.48-0.733
				c0.115-0.119,0.263-0.28,0.4-0.373c0.306-0.21,0.542-0.341,0.898-0.443c0.192-0.055,0.434-0.13,0.634-0.143
				c0.223-0.014,0.431,0.002,0.653,0.027c0.631,0.071,1.206,0.405,1.644,0.865c0.782,0.821,1.007,2.039,0.469,3.159
				c-0.802,1.668-2.686,2.062-4.079,1.153C259.589,267.084,259.265,266.739,259.045,266.336z"/>
			<path style="fill:#FFFFFF;" d="M250.645,266.336c-0.441-0.811-0.529-1.663-0.169-2.512c0.086-0.203,0.327-0.574,0.479-0.733
				c0.115-0.119,0.264-0.28,0.4-0.373c0.306-0.21,0.542-0.341,0.899-0.443c0.192-0.055,0.434-0.13,0.633-0.143
				c0.223-0.014,0.431,0.002,0.653,0.027c0.631,0.071,1.206,0.405,1.644,0.865c0.782,0.821,1.007,2.039,0.469,3.159
				c-0.802,1.668-2.686,2.062-4.079,1.153C251.189,267.084,250.865,266.739,250.645,266.336z"/>
			<path style="fill:#FFFFFF;" d="M242.245,266.336c-0.441-0.811-0.529-1.663-0.17-2.512c0.086-0.203,0.327-0.574,0.48-0.733
				c0.115-0.119,0.264-0.28,0.4-0.373c0.306-0.21,0.542-0.341,0.898-0.443c0.192-0.055,0.434-0.13,0.633-0.143
				c0.223-0.014,0.431,0.002,0.653,0.027c0.631,0.071,1.206,0.405,1.644,0.865c0.782,0.821,1.007,2.039,0.469,3.159
				c-0.801,1.668-2.686,2.062-4.079,1.153C242.789,267.084,242.465,266.739,242.245,266.336z"/>
			<path style="fill:#D66EC0;" d="M214.342,276.431c-9.268,0.183-30.732,0.089-36.223,0.101c-6.797,0.014-13.593,0.051-20.39,0.042
				c-4.073-0.006-11.071,0.016-15.818-0.023c-0.232,0.365-0.168,0.967-0.181,0.967c0,0.036-0.001,1.368-0.004,3.613
				c4.597,0.052,12.194,0.027,16.476,0.033c6.64,0.009,13.279-0.028,19.918-0.042c5.589-0.012,28.121,0.09,36.463-0.125
				c-0.017-0.847-0.033-1.694-0.052-2.54C214.525,278.22,214.459,276.929,214.342,276.431z"/>
			<path style="fill:#FFD075;" d="M180.273,286.9c-3.158,0.127-10.471,0.062-12.342,0.07c-2.316,0.01-4.632,0.035-6.947,0.029
				c-1.388-0.004-3.772,0.011-5.39-0.016c-0.079,0.254-0.057,0.673-0.062,0.672c0,0.025,0,0.951-0.001,2.512
				c1.566,0.036,4.155,0.019,5.614,0.023c2.262,0.006,4.524-0.02,6.786-0.029c1.904-0.008,9.582,0.063,12.424-0.087
				c-0.006-0.589-0.011-1.178-0.018-1.767C180.336,288.144,180.313,287.246,180.273,286.9z"/>
			<path style="fill:#FFFFFF;" d="M231.31,294.422c-7.631,0.127-25.305,0.062-29.827,0.07c-5.596,0.01-11.193,0.035-16.79,0.029
				c-3.354-0.004-9.116,0.011-13.025-0.016c-0.191,0.253-0.138,0.673-0.149,0.672c0,0.025-0.001,0.951-0.003,2.512
				c3.786,0.036,10.04,0.019,13.566,0.023c5.467,0.006,10.934-0.02,16.401-0.029c4.602-0.008,23.156,0.063,30.025-0.087
				c-0.014-0.589-0.027-1.178-0.043-1.766C231.461,295.666,231.406,294.768,231.31,294.422z"/>
			<path style="fill:#7991D1;" d="M206.661,300.44c-4.486,0.127-14.874,0.062-17.532,0.07c-3.289,0.01-6.579,0.035-9.869,0.029
				c-1.971-0.004-5.358,0.011-7.656-0.016c-0.112,0.254-0.081,0.673-0.087,0.672c0,0.025-0.001,0.951-0.002,2.512
				c2.225,0.036,5.901,0.019,7.974,0.023c3.213,0.006,6.427-0.02,9.64-0.029c2.705-0.008,13.61,0.063,17.648-0.087
				c-0.008-0.589-0.016-1.178-0.025-1.766C206.75,301.684,206.718,300.786,206.661,300.44z"/>
			<path style="fill:#FFFFFF;" d="M221.375,306.458c-6.363,0.127-21.101,0.062-24.871,0.07c-4.667,0.01-9.333,0.035-14,0.029
				c-2.797-0.004-7.602,0.011-10.861-0.016c-0.159,0.254-0.115,0.673-0.124,0.672c0,0.025-0.001,0.951-0.002,2.512
				c3.157,0.036,8.372,0.019,11.312,0.023c4.559,0.006,9.117-0.02,13.676-0.029c3.838-0.008,19.309,0.063,25.036-0.087
				c-0.012-0.589-0.023-1.178-0.036-1.767C221.502,307.702,221.456,306.804,221.375,306.458z"/>
			<path style="fill:#FFFFFF;" d="M231.31,312.476c-7.631,0.127-25.305,0.062-29.827,0.07c-5.596,0.01-11.193,0.035-16.79,0.029
				c-3.354-0.004-9.116,0.011-13.025-0.016c-0.191,0.253-0.138,0.673-0.149,0.672c0,0.025-0.001,0.951-0.003,2.512
				c3.786,0.036,10.04,0.019,13.566,0.023c5.467,0.006,10.934-0.02,16.401-0.029c4.602-0.008,23.156,0.063,30.025-0.087
				c-0.014-0.589-0.027-1.178-0.043-1.767C231.461,313.72,231.406,312.822,231.31,312.476z"/>
			<path style="fill:#7991D1;" d="M221.001,318.494c-6.316,0.127-20.942,0.062-24.684,0.07c-4.632,0.01-9.263,0.036-13.895,0.029
				c-2.776-0.004-7.544,0.011-10.779-0.016c-0.158,0.253-0.114,0.673-0.123,0.672c0,0.025-0.001,0.951-0.002,2.512
				c3.133,0.036,8.309,0.019,11.227,0.023c4.525,0.006,9.049-0.02,13.573-0.029c3.809-0.008,19.163,0.063,24.848-0.087
				c-0.012-0.589-0.023-1.178-0.035-1.766C221.126,319.738,221.08,318.84,221.001,318.494z"/>
			<path style="fill:#FFD075;" d="M180.273,330.53c-3.158,0.127-10.471,0.062-12.342,0.07c-2.316,0.01-4.632,0.035-6.947,0.029
				c-1.388-0.004-3.772,0.011-5.39-0.016c-0.079,0.254-0.057,0.673-0.062,0.672c0,0.025,0,0.951-0.001,2.512
				c1.566,0.036,4.155,0.019,5.614,0.023c2.262,0.006,4.524-0.02,6.786-0.029c1.904-0.008,9.582,0.063,12.424-0.087
				c-0.006-0.589-0.011-1.178-0.018-1.767C180.336,331.774,180.313,330.876,180.273,330.53z"/>
			<path style="fill:#7991D1;" d="M197.485,330.53c-1.802,0.127-5.976,0.062-7.044,0.07c-1.322,0.01-2.643,0.035-3.965,0.029
				c-0.792-0.004-2.153,0.011-3.076-0.016c-0.045,0.254-0.033,0.673-0.035,0.672c0,0.025,0,0.951-0.001,2.512
				c0.894,0.036,2.371,0.019,3.204,0.023c1.291,0.006,2.582-0.02,3.873-0.029c1.087-0.008,5.468,0.063,7.09-0.087
				c-0.003-0.589-0.007-1.178-0.01-1.767C197.52,331.774,197.508,330.876,197.485,330.53z"/>
			<path style="fill:#FFFFFF;" d="M231.31,338.052c-7.631,0.127-25.305,0.062-29.827,0.07c-5.596,0.01-11.193,0.035-16.79,0.029
				c-3.354-0.004-9.116,0.011-13.025-0.016c-0.191,0.253-0.138,0.672-0.149,0.672c0,0.025-0.001,0.951-0.003,2.512
				c3.786,0.036,10.04,0.019,13.566,0.023c5.467,0.006,10.934-0.02,16.401-0.029c4.602-0.008,23.156,0.063,30.025-0.087
				c-0.014-0.589-0.027-1.178-0.043-1.767C231.461,339.297,231.406,338.399,231.31,338.052z"/>
			<path style="fill:#FFFFFF;" d="M227.436,344.07c-7.137,0.127-23.666,0.062-27.895,0.07c-5.234,0.01-10.468,0.035-15.702,0.029
				c-3.137-0.004-8.526,0.011-12.181-0.016c-0.179,0.253-0.129,0.673-0.139,0.672c0,0.025-0.001,0.951-0.003,2.512
				c3.54,0.036,9.39,0.018,12.688,0.023c5.113,0.006,10.226-0.02,15.338-0.029c4.304-0.008,21.656,0.063,28.079-0.087
				c-0.013-0.589-0.026-1.178-0.04-1.767C227.577,345.315,227.526,344.417,227.436,344.07z"/>
			<path style="fill:#FFFFFF;" d="M227.561,350.088c-7.153,0.127-23.719,0.062-27.957,0.07c-5.246,0.01-10.491,0.035-15.737,0.029
				c-3.144-0.004-8.545,0.011-12.208-0.016c-0.179,0.254-0.13,0.673-0.139,0.672c0,0.025-0.001,0.951-0.003,2.512
				c3.548,0.036,9.411,0.019,12.716,0.023c5.124,0.006,10.248-0.02,15.372-0.029c4.314-0.008,21.704,0.063,28.142-0.087
				c-0.013-0.589-0.026-1.178-0.04-1.767C227.703,351.332,227.651,350.435,227.561,350.088z"/>
			<path style="fill:#7991D1;" d="M231.31,356.106c-7.631,0.127-25.305,0.062-29.827,0.07c-5.596,0.01-11.193,0.036-16.79,0.029
				c-3.354-0.004-9.116,0.011-13.025-0.016c-0.191,0.254-0.138,0.672-0.149,0.672c0,0.025-0.001,0.951-0.003,2.512
				c3.786,0.036,10.04,0.019,13.566,0.023c5.467,0.006,10.934-0.02,16.401-0.029c4.602-0.008,23.156,0.063,30.025-0.087
				c-0.014-0.589-0.027-1.178-0.043-1.767C231.461,357.35,231.406,356.453,231.31,356.106z"/>
			<path style="fill:#FFFFFF;" d="M221.001,362.124c-6.316,0.127-20.942,0.062-24.684,0.07c-4.632,0.01-9.263,0.035-13.895,0.029
				c-2.776-0.004-7.544,0.011-10.779-0.016c-0.158,0.253-0.114,0.672-0.123,0.672c0,0.025-0.001,0.951-0.002,2.512
				c3.133,0.036,8.309,0.019,11.227,0.023c4.525,0.006,9.049-0.02,13.573-0.029c3.809-0.008,19.163,0.063,24.848-0.087
				c-0.012-0.589-0.023-1.178-0.035-1.767C221.126,363.368,221.08,362.471,221.001,362.124z"/>
		</g>
		<g>
			<path style="fill:#D66EC0;" d="M350.39,269.193c-0.009,0.002-0.018,0.002-0.027,0.004c-0.128-1.865-2.213-3.018-4.07-3.496
				c-3.102-0.798-6.332-0.921-9.533-1.039c-12.45-0.459-24.979-0.914-37.314,0.843c-2.243,0.319-4.631,0.788-6.232,2.392
				c-0.417,0.418-0.776,0.925-0.87,1.507c-0.012,0.074-0.012,0.144-0.017,0.216c-0.014,0.002-0.029,0.004-0.043,0.006
				c-0.053,14.561-0.106,29.122-0.16,43.682c-0.021,5.693-0.042,11.388,0.144,17.079c0.023,0.007,0.047,0.011,0.071,0.018
				c-1.166,8.774,47.249,4.342,52.797,3.583c2.316-0.317,5.229-1.323,5.253-3.661c0-0.008-0.003-0.016-0.003-0.024
				c0.007,0,0.014,0.002,0.02,0.001c0.143-7.808,0.156-15.745,0.299-23.553C350.934,294.306,350.965,281.63,350.39,269.193z"/>
			<path style="fill:#EBA7DC;" d="M351.137,307.667c-0.006-8.134-0.082-16.267-0.235-24.4c-0.088-4.671-0.199-9.34-0.365-14.009
				c-0.007-0.186-0.108-0.305-0.237-0.37c-0.453-2.833-4.151-3.567-6.67-3.842c-4.679-0.512-9.372-0.906-14.074-1.135
				c-9.467-0.462-18.986-0.3-28.404,0.811c-3.368,0.397-7.019,0.729-9,3.775c-0.135,0.078-0.34,0.55-0.337,0.752
				c0.149,8.037,0.004,16.089,0.014,24.127c0.009,8.123,0.014,16.246,0.024,24.369c0.001,0.565-0.001,1.13-0.001,1.695
				c-0.176,1.783-0.211,3.612-0.245,5.379c-0.023,1.159-0.038,2.318-0.033,3.477c0.005,1.069,0.068,3.493,0.161,3.598
				c2.072,2.347,5.662,3.157,8.624,3.559c3.83,0.52,7.744,0.578,11.603,0.711c8.238,0.285,16.515,0.196,24.71-0.774
				c4.549-0.538,9.057-1.366,13.486-2.535c0.234-0.062,0.345-0.233,0.365-0.418c0.169-0.029,0.322-0.149,0.333-0.372
				C351.243,323.951,351.143,315.79,351.137,307.667z M349.659,269.846c0.133,6.604,0.247,13.209,0.337,19.813
				c-0.019,0.001-0.035-0.005-0.055-0.002c-2.418,0.328-4.81,0.916-7.225,1.291c-2.371,0.368-4.752,0.667-7.14,0.898
				c-4.712,0.457-9.455,0.659-14.189,0.614c-4.737-0.045-9.47-0.354-14.173-0.924c-4.823-0.585-9.545-1.639-14.338-2.39
				c-0.014-0.002-0.025,0.002-0.039,0.001c-0.001-2.048,0.006-4.096,0.002-6.144c-0.008-4.413-0.075-8.832-0.006-13.245
				c1.569,0.608,3.288,0.957,4.919,1.324c1.842,0.414,3.701,0.765,5.564,1.073c3.695,0.612,7.425,1.039,11.163,1.278
				c7.59,0.485,15.221,0.135,22.742-0.978C341.416,271.834,345.566,270.953,349.659,269.846z M292.832,307.371
				c0.007-5.841,0.007-11.682,0.006-17.523c4.479,1.431,9.269,2.122,13.922,2.703c4.852,0.606,9.739,0.935,14.628,0.991
				c4.892,0.056,9.781-0.18,14.645-0.699c2.324-0.248,4.642-0.559,6.95-0.931c2.333-0.377,4.753-0.712,7.027-1.377
				c0.089,6.713,0.136,13.427,0.137,20.141c-0.013,0.002-0.023-0.003-0.036,0c-9.641,1.913-19.556,2.991-29.393,2.83
				c-4.797-0.079-9.603-0.335-14.373-0.855c-2.349-0.256-4.691-0.604-6.988-1.163c-2.234-0.544-4.322-1.46-6.516-2.117
				C292.837,308.703,292.831,308.036,292.832,307.371z M301.151,265.605c4.113-0.488,8.249-0.792,12.388-0.946
				c8.128-0.302,16.269-0.011,24.374,0.633c2.246,0.178,4.5,0.35,6.737,0.625c1.927,0.237,4.32,0.986,5.016,2.892
				c-9.321,2.546-18.953,3.835-28.617,3.83c-4.866-0.003-9.739-0.323-14.559-0.985c-2.395-0.329-4.78-0.74-7.147-1.231
				c-2.125-0.44-4.259-1.098-6.407-1.416C294.839,266.547,298.227,265.952,301.151,265.605z M303.083,334.783
				c-1.9-0.132-3.802-0.347-5.647-0.836c-1.802-0.477-3.308-1.293-4.871-2.215c0.059-0.053,0.1-0.13,0.105-0.234
				c0.323-7.094,0.2-14.221,0.172-21.328c2.798,1.915,6.605,2.595,9.87,3.116c3.633,0.579,7.318,0.872,10.99,1.064
				c7.85,0.41,15.781,0.148,23.594-0.702c4.312-0.469,8.597-1.151,12.849-2.009c-0.001,2.139,0.007,4.277-0.006,6.416
				c-0.028,4.594-0.148,9.188-0.084,13.782c-0.056-0.004-0.113-0.007-0.178,0.01C334.743,335.84,318.608,335.861,303.083,334.783z"
				/>
		</g>
		<text transform="matrix(1 0 0 1 293.6387 370.4043)" style="fill:#4C5980; font-family:'Rubik-Bold'; font-size:31.6003px;">SQL</text>
	</g>
	<g>
		<path style="fill:#FFD075;" d="M302.533,117.315c-0.095-5.89-0.188-11.779-0.292-17.669c-0.011-0.625-0.177-4.554-0.466-4.979
			c-0.272-0.948-55.852-0.062-66.769-0.19c-10.719-0.126-64.127,0.253-64.432,0.262c-1.426,0.043-1.17,2.795-1.203,2.794
			c0.002,0.415-0.08,78.776-0.034,118.09c0.321,0.515,23.033,0.378,33.572,0.398c10.963,0.02,21.926-0.064,32.888-0.096
			c10.763-0.032,59.591,0.284,64.902-0.592c0.158-0.026,0.273-0.107,0.416-0.153c0.456-0.08,0.877-0.27,1.207-0.557
			c0.168-18.452,0.231-36.921,0.057-55.198C302.245,145.312,302.37,131.303,302.533,117.315z"/>
		<path style="fill:#EB9921;" d="M299.247,215.48c0.634-0.045,1.125-0.094,1.451-0.148c0.158-0.026,0.273-0.107,0.416-0.153
			c0.456-0.08,0.877-0.27,1.207-0.557c0.16-17.537,0.218-35.086,0.075-52.475c-0.488-0.311-0.968-0.631-1.475-0.922
			c-2.133-1.222-4.368-2.209-6.65-3.055c-1.531-4.762-3.639-11.293-3.903-11.962c-0.419-1.065-1.04-7.398-1.92-7.903
			c-0.879-0.505-22.271-0.751-23.305,0.059c-0.809,0.634-4.166,14.429-5.591,20.414c-5.677,2.286-10.837,5.599-15.313,9.664
			c-5.141-1.515-20.12-5.883-21.164-5.647c-1.261,0.285-11.191,18.536-11.601,20.212c-0.41,1.676,7.355,7.05,9.701,9.427
			c1.2,1.215,3.843,3.851,6.305,6.288c-0.231,1.343-0.408,2.698-0.53,4.063c-0.378,4.231-0.135,8.468,0.607,12.618
			c-0.177,0.175-0.366,0.363-0.562,0.556c2.934-0.013,5.868-0.028,8.802-0.036c3.499-0.01,11.024,0.016,19.767,0.026
			c-2.753-6.921-2.158-14.964,1.947-21.559c5.688-9.136,17.314-13.053,27.486-9.664c9.974,3.324,16.695,13.663,15.861,24.143
			C300.679,211.107,300.118,213.343,299.247,215.48z"/>
		<path style="fill:#7991D1;" d="M247.304,130.057c-0.448-0.667-1.865-2.346-1.865-2.346l-13.916-13.008
			c1.087-6.438,0.628-12.827-0.934-19.097c0.37-0.376,0.751-0.762,1.136-1.151c-6.605-0.021-18.608,0.026-30.243,0.087
			c1.663,3.704,2.45,7.809,2.122,11.935c-0.574,7.211-4.883,14.439-11.042,18.534c-3.738,3.289-9.741,4.563-14.395,4.441
			c-3.059-0.08-6.043-0.77-8.819-1.951c-0.01,14.384-0.021,32.159-0.023,49.206c0.38-0.049,0.649-0.103,0.649-0.103
			s19.814,0.55,20.35-0.008c0.537-0.558,0.863-0.371,1.167-1.278c0.274-0.815,4.318-15.481,4.941-19.213
			c6.608-2,12.689-5.259,17.574-9.812c7.074,1.895,20.798,5.498,21.114,4.992c0.426-0.681,1.548-2.635,1.548-2.635
			S247.751,130.724,247.304,130.057z"/>
		<path style="fill:#B345B5;" d="M201.141,109.382c11.55,0.02,23.1-0.064,34.649-0.095c10.563-0.03,55.915,0.243,66.603-0.427
			c-0.05-3.071-0.098-6.142-0.152-9.213c-0.011-0.625-0.177-4.554-0.466-4.98c-0.272-0.948-55.852-0.062-66.769-0.19
			c-10.719-0.126-64.127,0.252-64.432,0.262c-1.426,0.043-1.17,2.795-1.203,2.794c0.001,0.098-0.004,4.511-0.01,11.714
			C176.517,109.443,192.61,109.367,201.141,109.382z"/>
		<path style="fill:#FFD075;" d="M292.666,102.674c-0.495-0.909-0.593-1.864-0.19-2.816c0.096-0.227,0.366-0.644,0.538-0.821
			c0.128-0.133,0.296-0.314,0.448-0.418c0.343-0.235,0.607-0.382,1.007-0.497c0.215-0.062,0.487-0.146,0.71-0.16
			c0.25-0.016,0.483,0.002,0.732,0.03c0.707,0.079,1.352,0.454,1.843,0.969c0.877,0.92,1.129,2.286,0.525,3.541
			c-0.898,1.869-3.011,2.312-4.572,1.293C293.275,103.513,292.912,103.126,292.666,102.674z"/>
		<path style="fill:#FFFFFF;" d="M283.25,102.674c-0.494-0.909-0.593-1.864-0.19-2.816c0.096-0.227,0.366-0.644,0.538-0.821
			c0.128-0.133,0.295-0.314,0.448-0.418c0.343-0.235,0.607-0.382,1.007-0.497c0.215-0.062,0.487-0.146,0.71-0.16
			c0.25-0.016,0.483,0.002,0.732,0.03c0.707,0.079,1.352,0.454,1.843,0.969c0.877,0.92,1.129,2.286,0.525,3.541
			c-0.898,1.869-3.011,2.312-4.572,1.293C283.86,103.513,283.496,103.126,283.25,102.674z"/>
		<path style="fill:#FFFFFF;" d="M273.834,102.674c-0.495-0.909-0.593-1.864-0.19-2.816c0.096-0.227,0.366-0.644,0.538-0.821
			c0.128-0.133,0.295-0.314,0.448-0.418c0.343-0.235,0.607-0.382,1.007-0.497c0.215-0.062,0.487-0.146,0.71-0.16
			c0.25-0.016,0.483,0.002,0.732,0.03c0.707,0.079,1.352,0.454,1.843,0.969c0.877,0.92,1.129,2.286,0.525,3.541
			c-0.899,1.869-3.011,2.312-4.572,1.293C274.444,103.513,274.08,103.126,273.834,102.674z"/>
	</g>
	<g>
		<path style="fill:#FFFFFF;" d="M146.168,169.311c-0.078-2.889-0.154-5.778-0.239-8.667c-0.009-0.307-0.144-2.234-0.38-2.443
			c-0.222-0.465-45.515-0.036-54.411-0.1c-8.735-0.063-52.258,0.118-52.507,0.122c-1.162,0.021-0.953,1.371-0.98,1.37
			c0.002,0.204-0.058,38.641-0.017,57.925c0.262,0.253,18.77,0.188,27.358,0.198c8.934,0.011,17.868-0.03,26.801-0.044
			c8.771-0.015,48.562,0.145,52.89-0.284c0.129-0.013,0.223-0.052,0.339-0.075c0.372-0.039,0.715-0.133,0.984-0.273
			c0.135-9.051,0.185-18.11,0.042-27.076C145.936,183.044,146.036,176.172,146.168,169.311z"/>
		<path style="fill:#B345B5;" d="M145.548,158.202c-0.222-0.465-45.515-0.036-54.411-0.1c-8.735-0.063-52.258,0.118-52.507,0.122
			c-1.162,0.021-0.953,1.371-0.98,1.37c0.001,0.067-0.005,4.252-0.012,10.508c5.836,0.027,18.955,0.02,25.911,0.024
			c9.418,0.005,18.836-0.004,28.253-0.005c8.63-0.002,45.731,0.042,54.353-0.042c0.005-0.256,0.008-0.512,0.014-0.768
			c-0.078-2.889-0.154-5.778-0.239-8.667C145.919,160.337,145.784,158.41,145.548,158.202z"/>
		<path style="fill:#FFD075;" d="M136.579,165.603c-0.494-0.908-0.593-1.863-0.19-2.816c0.096-0.227,0.366-0.644,0.538-0.821
			c0.128-0.133,0.295-0.314,0.448-0.418c0.343-0.235,0.607-0.382,1.007-0.497c0.215-0.062,0.487-0.146,0.71-0.16
			c0.25-0.016,0.483,0.002,0.732,0.03c0.707,0.079,1.352,0.454,1.843,0.969c0.877,0.92,1.128,2.286,0.525,3.541
			c-0.898,1.869-3.011,2.312-4.572,1.293C137.189,166.442,136.826,166.056,136.579,165.603z"/>
		<path style="fill:#FFFFFF;" d="M127.163,165.603c-0.494-0.908-0.593-1.863-0.19-2.816c0.096-0.227,0.366-0.644,0.537-0.821
			c0.128-0.133,0.295-0.314,0.448-0.418c0.343-0.235,0.607-0.382,1.007-0.497c0.215-0.062,0.487-0.146,0.71-0.16
			c0.25-0.016,0.483,0.002,0.732,0.03c0.707,0.079,1.352,0.454,1.843,0.969c0.877,0.92,1.129,2.286,0.525,3.541
			c-0.898,1.869-3.011,2.312-4.572,1.293C127.773,166.442,127.41,166.056,127.163,165.603z"/>
		<path style="fill:#FFFFFF;" d="M117.748,165.603c-0.494-0.908-0.593-1.863-0.19-2.816c0.096-0.227,0.366-0.644,0.537-0.821
			c0.128-0.133,0.296-0.314,0.448-0.418c0.343-0.235,0.607-0.382,1.007-0.497c0.215-0.062,0.487-0.146,0.71-0.16
			c0.25-0.016,0.483,0.002,0.732,0.03c0.707,0.079,1.352,0.454,1.843,0.969c0.877,0.92,1.128,2.286,0.525,3.541
			c-0.898,1.869-3.011,2.312-4.572,1.293C118.357,166.442,117.994,166.056,117.748,165.603z"/>
		<path style="fill:#D5DFE9;" d="M45.859,217.414c-2.487-0.167-4.975-0.308-7.465-0.443c0.205-7.267,0.033-14.558,0.018-21.827
			c-0.015-7.453,0.106-14.925-0.098-22.375c-0.019-0.706-1.083-0.708-1.098,0c-0.155,7.451,0.015,14.922,0.048,22.375
			c0.033,7.35-0.098,14.723,0.167,22.069c-0.157,0.322-0.002,0.822,0.475,0.853c2.65,0.172,5.3,0.335,7.952,0.472
			C46.583,218.574,46.576,217.462,45.859,217.414z"/>
		<path style="fill:#7991D1;" d="M139.878,182.095c-0.069-1.806-0.136-3.613-0.212-5.419c-0.008-0.192-0.128-1.397-0.336-1.527
			c-0.196-0.291-40.242-0.026-48.107-0.066c-7.723-0.04-46.204,0.07-46.424,0.073c-1.027,0.013-0.843,0.857-0.867,0.857
			c0.002,0.127-0.048,24.161-0.01,36.219c0.231,0.158,16.595,0.119,24.189,0.126c7.899,0.007,15.798-0.017,23.696-0.025
			c7.755-0.008,42.936,0.094,46.763-0.174c0.114-0.008,0.197-0.033,0.3-0.047c0.329-0.024,0.632-0.083,0.87-0.171
			c0.119-5.659,0.162-11.324,0.035-16.93C139.675,190.682,139.763,186.385,139.878,182.095z"/>
		<text transform="matrix(1 0 0 1 52.2358 199.8027)" style="fill:#FFFFFF; font-family:'Rubik-SemiBold'; font-size:19.224px;">&lt;...&gt;/&lt;...&gt;</text>
	</g>
	<g>
		<path style="fill:#FFFFFF;" d="M147.571,96.753c-0.049-2.523-0.096-5.045-0.149-7.568c-0.006-0.268-0.09-1.951-0.237-2.133
			c-0.138-0.406-28.424-0.028-33.979-0.083c-5.455-0.054-32.635,0.107-32.79,0.111c-0.726,0.018-0.595,1.197-0.612,1.197
			c0.001,0.178-0.039,33.742-0.015,50.581c0.163,0.221,11.722,0.163,17.085,0.171c5.579,0.009,11.158-0.027,16.737-0.04
			c5.478-0.013,30.327,0.123,33.03-0.252c0.08-0.011,0.139-0.046,0.212-0.065c0.232-0.034,0.447-0.116,0.615-0.238
			c0.085-7.903,0.117-15.814,0.028-23.643C147.426,108.745,147.489,102.744,147.571,96.753z"/>
		<path style="fill:#D66EC0;" d="M143.338,109.683c-0.043-1.488-0.084-2.976-0.131-4.464c-0.005-0.158-0.079-1.15-0.208-1.258
			c-0.121-0.24-24.877-0.019-29.739-0.052c-4.774-0.033-28.563,0.06-28.698,0.062c-0.635,0.011-0.521,0.706-0.536,0.706
			c0.001,0.105-0.031,19.901-0.009,29.833c0.143,0.13,10.259,0.097,14.953,0.102c4.883,0.006,9.766-0.015,14.648-0.022
			c4.794-0.008,26.542,0.075,28.908-0.146c0.07-0.007,0.122-0.027,0.185-0.038c0.203-0.02,0.391-0.068,0.538-0.141
			c0.074-4.661,0.101-9.327,0.023-13.945C143.212,116.756,143.266,113.217,143.338,109.683z"/>
		<path style="fill:#B345B5;" d="M147.185,87.052c-0.138-0.406-28.424-0.028-33.979-0.083c-5.455-0.054-32.635,0.107-32.79,0.111
			c-0.726,0.019-0.595,1.197-0.612,1.197c0,0.062-0.004,4.125-0.009,10.106c4.285,0.049,11.306,0.025,15.273,0.031
			c6.18,0.009,12.359-0.027,18.538-0.04c5.207-0.011,26.207,0.088,33.951-0.121c0.007-0.499,0.009-1,0.016-1.5
			c-0.049-2.523-0.096-5.045-0.149-7.568C147.417,88.917,147.332,87.234,147.185,87.052z"/>
		<path style="fill:#FFD075;" d="M138.259,93.989c-0.494-0.909-0.593-1.863-0.19-2.816c0.096-0.227,0.366-0.644,0.538-0.821
			c0.128-0.133,0.295-0.314,0.448-0.418c0.343-0.235,0.607-0.382,1.007-0.497c0.215-0.062,0.487-0.146,0.71-0.16
			c0.249-0.016,0.483,0.002,0.732,0.03c0.707,0.079,1.352,0.454,1.843,0.969c0.877,0.92,1.128,2.286,0.525,3.541
			c-0.898,1.869-3.011,2.312-4.572,1.293C138.869,94.828,138.505,94.441,138.259,93.989z"/>
		<path style="fill:#FFFFFF;" d="M128.843,93.989c-0.494-0.909-0.593-1.863-0.19-2.816c0.096-0.227,0.366-0.644,0.538-0.821
			c0.128-0.133,0.295-0.314,0.448-0.418c0.343-0.235,0.607-0.382,1.007-0.497c0.215-0.062,0.487-0.146,0.71-0.16
			c0.25-0.016,0.483,0.002,0.732,0.03c0.707,0.079,1.352,0.454,1.843,0.969c0.877,0.92,1.129,2.286,0.525,3.541
			c-0.898,1.869-3.011,2.312-4.572,1.293C129.453,94.828,129.089,94.441,128.843,93.989z"/>
		<path style="fill:#FFFFFF;" d="M119.427,93.989c-0.494-0.909-0.593-1.863-0.19-2.816c0.096-0.227,0.366-0.644,0.538-0.821
			c0.128-0.133,0.295-0.314,0.448-0.418c0.343-0.235,0.607-0.382,1.007-0.497c0.215-0.062,0.487-0.146,0.71-0.16
			c0.25-0.016,0.483,0.002,0.732,0.03c0.707,0.079,1.352,0.454,1.843,0.969c0.877,0.92,1.129,2.286,0.525,3.541
			c-0.899,1.869-3.011,2.312-4.572,1.293C120.037,94.828,119.674,94.441,119.427,93.989z"/>
		<path style="fill:#D5DFE9;" d="M79.196,100.258c-0.019,6.558-0.078,13.117-0.006,19.675c0.008,0.739,1.136,0.74,1.149,0
			c0.11-6.557,0.089-13.117,0.108-19.675C80.449,99.453,79.198,99.452,79.196,100.258z"/>
		<text transform="matrix(1 0 0 1 95.4536 126.3896)" style="fill:#FFD075; font-family:'Rubik-SemiBold'; font-size:21.6751px;">CSS</text>
	</g>
	<g>
		<g>
			<path style="fill:#FFBB39;" d="M37.626,255.152c0-2.635,0-5.27,0-7.905c0-0.521,0.574-0.805,1.095-0.811
				c3.92-0.048,7.84-0.096,11.76-0.143c3.69-0.045,7.381-0.09,11.071-0.135c2.435,2.488,4.431,5.332,5.396,8.678
				c-7.382,0.721-14.804,0.908-22.218,1.094c-2.306,0.058-4.652,0.111-6.872-0.512C37.802,255.226,37.626,255.35,37.626,255.152z"/>
			<path style="fill:#FFBB39;" d="M109.029,290.218c0.204-11.015,0.059-21.84-0.071-32.779c-0.013-1.072-0.002-2.208-0.554-3.097
				c-0.553-0.889-1.808-1.025-2.795-1.043c-21.983-0.394-43.974-0.22-65.949,0.522c-0.713,0.024-1.41-0.005-2.007,0.419
				c-0.596,0.425-0.515,0.863-0.491,2.006c0.189,11.751,0.379,23.501,0.568,35.252c0.028,1.729,1.887,2.863,3.479,2.861
				c21.472-0.026,43.073-1.153,64.545-1.179c0.848-0.001,1.753-0.02,2.454-0.539C108.909,292.125,109.167,291.314,109.029,290.218z"
				/>
		</g>
		<path style="fill:#FFFFFF;" d="M63.655,252.958c-3.994,0.05-7.988,0.101-11.982,0.151c-1.997,0.025-3.994,0.05-5.991,0.076
			c-1.731,0.022-3.917-0.272-5.568,0.278c-0.145,0.048-0.143,0.251,0.004,0.295c1.671,0.512,3.834,0.164,5.573,0.145
			c1.997-0.023,3.994-0.045,5.991-0.068c3.994-0.045,7.988-0.091,11.982-0.136C64.14,253.693,64.132,252.952,63.655,252.958z"/>
	</g>
	<g>
		<g>
			<path style="fill:#7991D1;" d="M37.626,323.005c0-2.635,0-5.27,0-7.905c0-0.521,0.574-0.805,1.095-0.811
				c3.92-0.048,7.84-0.095,11.76-0.143c3.69-0.045,7.381-0.09,11.071-0.135c2.435,2.488,4.431,5.332,5.396,8.678
				c-7.382,0.721-14.804,0.908-22.218,1.094c-2.306,0.058-4.652,0.111-6.872-0.512C37.802,323.079,37.626,323.204,37.626,323.005z"
				/>
			<path style="fill:#7991D1;" d="M109.029,358.071c0.204-11.015,0.059-21.84-0.071-32.779c-0.013-1.073-0.002-2.208-0.554-3.097
				c-0.553-0.889-1.808-1.025-2.795-1.043c-21.983-0.394-43.974-0.22-65.949,0.522c-0.713,0.024-1.41-0.006-2.007,0.419
				s-0.515,0.863-0.491,2.006c0.189,11.751,0.379,23.501,0.568,35.252c0.028,1.729,1.887,2.863,3.479,2.862
				c21.472-0.026,43.073-1.153,64.545-1.179c0.848-0.001,1.753-0.02,2.454-0.539C108.909,359.978,109.167,359.167,109.029,358.071z"
				/>
		</g>
		<path style="fill:#FFFFFF;" d="M63.655,320.812c-3.994,0.05-7.988,0.101-11.982,0.151c-1.997,0.025-3.994,0.05-5.991,0.076
			c-1.731,0.022-3.917-0.272-5.568,0.278c-0.145,0.048-0.143,0.251,0.004,0.295c1.671,0.512,3.834,0.164,5.573,0.145
			c1.997-0.023,3.994-0.046,5.991-0.068c3.994-0.045,7.988-0.091,11.982-0.136C64.14,321.546,64.132,320.806,63.655,320.812z"/>
	</g>
</g>
</svg>
